<?xml version="1.0" standalone="no"?>
<!DOCTYPE svg PUBLIC "-//W3C//DTD SVG 20010904//EN"
 "http://www.w3.org/TR/2001/REC-SVG-20010904/DTD/svg10.dtd">
<svg version="1.0" xmlns="http://www.w3.org/2000/svg"
 width="1280.000000pt" height="640.000000pt" viewBox="0 0 1280.000000 640.000000"
 preserveAspectRatio="xMidYMid meet">
<metadata>
Created by potrace 1.15, written by Peter Selinger 2001-2017
</metadata>
<g transform="translate(0.000000,640.000000) scale(0.100000,-0.100000)"
fill="#000000" stroke="none">
<path d="M6221 4465 c-202 -46 -311 -132 -342 -271 -27 -118 45 -214 158 -214
104 0 162 112 94 181 -40 40 -82 39 -123 -2 -28 -27 -29 -32 -15 -46 12 -12
21 -13 44 -5 35 12 63 0 63 -27 0 -29 -33 -51 -78 -51 -82 0 -131 88 -98 175
39 100 165 164 364 185 230 24 465 -43 508 -145 41 -99 -75 -262 -130 -183
-14 20 -14 24 1 40 9 11 30 18 50 18 47 0 55 26 18 57 -68 59 -170 -32 -134
-118 15 -38 63 -69 104 -69 70 0 140 83 152 178 14 120 -106 235 -299 288 -79
22 -260 27 -337 9z"/>
<path d="M6200 3942 c-32 -16 -35 -21 -35 -62 0 -38 3 -45 21 -48 18 -3 20 1
16 27 -3 23 1 33 22 46 22 15 31 16 56 5 38 -16 70 -55 70 -86 0 -35 -65 -101
-134 -136 -33 -16 -103 -42 -155 -56 -94 -26 -102 -26 -416 -26 -266 0 -357 4
-540 23 -175 19 -251 22 -375 18 -206 -8 -399 -38 -490 -76 l-70 -29 0 24 c0
34 51 86 115 118 102 50 233 77 400 83 184 7 329 -10 641 -73 121 -24 260 -48
310 -52 286 -26 674 77 674 178 0 25 0 25 -58 -4 -36 -19 -76 -27 -170 -36
-141 -14 -235 -7 -280 20 -37 23 -40 42 -12 70 24 24 67 26 117 5 50 -21 66
-20 53 4 -27 52 -175 67 -212 21 -36 -45 -17 -117 41 -153 33 -20 48 -22 171
-21 131 1 134 1 90 -14 -26 -8 -84 -14 -140 -14 -107 0 -208 27 -315 85 -55
30 -60 35 -65 72 -4 35 -10 43 -49 62 -51 26 -66 20 -75 -32 -9 -48 7 -72 57
-85 23 -7 71 -28 106 -47 35 -19 87 -44 115 -54 l51 -18 -37 -1 c-69 0 -267
30 -516 79 -389 77 -537 85 -751 41 -185 -39 -275 -97 -305 -201 -9 -29 -16
-60 -16 -70 0 -9 -22 -33 -49 -52 -29 -21 -63 -58 -82 -90 l-32 -55 -31 47
c-17 25 -42 51 -56 59 -39 20 -113 10 -155 -22 -62 -48 -37 -83 33 -46 36 19
46 20 76 10 53 -17 86 -62 86 -117 0 -56 -20 -99 -68 -146 l-38 -37 -109 51
c-60 28 -206 83 -324 122 l-215 70 38 33 c41 35 121 60 158 49 13 -4 46 -23
75 -42 28 -19 56 -32 62 -29 20 13 12 55 -13 72 -29 18 -119 44 -157 44 -57 0
-131 -32 -180 -77 l-49 -46 -110 18 c-87 14 -143 17 -263 12 -237 -9 -368 -50
-568 -178 -42 -27 -82 -49 -89 -49 -7 0 -45 12 -84 26 -182 66 -376 26 -460
-94 -41 -59 -48 -147 -16 -215 42 -90 175 -177 269 -177 52 0 70 -11 76 -44 4
-17 2 -44 -4 -59 -10 -27 -11 -27 -109 -27 -87 0 -101 2 -117 20 -11 12 -28
20 -39 18 -12 -1 -31 3 -43 10 -12 7 -30 12 -41 12 -11 0 -25 7 -33 16 -8 10
-22 14 -40 10 -23 -4 -29 -1 -37 23 -8 23 -15 28 -35 24 -19 -4 -28 1 -37 17
-6 12 -19 20 -29 18 -9 -2 -46 16 -82 40 -42 27 -77 42 -97 42 -38 0 -104 30
-99 44 8 27 83 50 172 54 87 4 92 3 135 -27 49 -33 85 -40 94 -16 11 29 -6 43
-91 74 -127 46 -182 41 -328 -29 l-80 -38 -85 13 c-176 28 -344 10 -445 -50
-97 -56 -161 -161 -179 -294 -5 -34 -18 -56 -54 -96 -114 -125 -163 -310 -113
-422 22 -47 40 -60 91 -64 98 -7 176 49 125 91 -12 10 -22 6 -57 -19 -47 -35
-73 -38 -106 -15 -15 10 -22 25 -22 49 0 61 30 179 61 240 28 55 71 115 83
115 3 0 14 -19 24 -43 42 -95 145 -159 269 -165 40 -2 87 1 108 8 36 12 105
64 105 80 0 20 -35 18 -80 -5 -101 -51 -223 -23 -320 74 -82 82 -70 109 76
168 78 31 102 36 197 41 59 2 127 1 152 -3 l45 -6 0 -62 c1 -109 55 -213 170
-327 77 -76 145 -112 267 -142 218 -54 468 -11 678 118 l70 43 20 -27 c45 -62
101 -114 168 -159 40 -26 74 -51 75 -55 2 -5 46 -8 97 -8 l93 0 30 35 c64 72
62 185 -3 185 -32 0 -35 -8 -18 -47 17 -43 12 -70 -21 -106 -50 -54 -136 -28
-268 79 -64 53 -118 113 -118 132 0 5 33 38 72 73 93 82 108 100 105 123 -4
37 -26 27 -111 -53 -47 -45 -90 -81 -95 -81 -6 0 -20 18 -31 40 l-20 39 53 26
c74 37 142 97 134 118 -3 9 -10 17 -15 17 -4 0 -43 -22 -87 -50 -44 -27 -85
-50 -91 -50 -7 0 -18 16 -24 35 -16 47 -5 58 75 85 74 25 128 58 133 83 5 26
-40 21 -106 -12 -90 -45 -100 -47 -112 -17 -19 50 1 71 92 101 130 43 208 90
193 115 -10 17 -41 11 -107 -20 -45 -22 -78 -30 -116 -30 -51 0 -53 1 -47 23
20 72 24 75 83 83 131 15 189 86 143 174 -12 22 -21 47 -21 55 0 28 216 122
395 172 77 21 117 26 275 30 102 2 210 1 240 -4 l55 -8 3 -53 3 -52 -155 0
c-100 0 -180 -5 -227 -15 -94 -20 -221 -72 -293 -120 -168 -111 -262 -392
-188 -558 36 -78 110 -119 177 -97 58 19 66 58 22 107 -35 39 -59 28 -103 -43
-11 -17 -15 -13 -38 36 -47 100 -31 266 34 370 83 130 235 225 420 260 67 13
291 14 344 1 24 -6 56 -26 85 -54 25 -25 65 -54 88 -66 96 -48 272 -68 373
-42 25 7 73 23 108 38 l63 26 53 -37 c58 -40 71 -43 79 -21 4 9 -11 29 -41 55
l-47 41 44 39 c24 22 47 38 51 35 4 -2 10 -17 13 -32 24 -121 193 -187 315
-124 55 28 79 76 62 127 -13 37 -53 74 -81 74 -24 0 -24 -11 1 -60 26 -52 25
-72 -6 -101 -20 -19 -35 -24 -73 -23 -147 5 -224 139 -175 304 12 39 30 69 71
112 31 32 59 58 62 58 4 0 15 -14 25 -31 42 -71 150 -73 183 -4 22 46 10 55
-37 27 -21 -12 -47 -22 -58 -22 -20 0 -62 39 -62 59 0 17 50 36 160 59 135 28
228 34 360 22 288 -26 917 -38 1055 -20 300 40 368 51 427 73 82 30 159 78
197 124 28 34 29 34 36 13 11 -35 65 -90 114 -115 184 -93 502 -124 1046 -103
460 18 782 16 868 -5 78 -19 167 -55 167 -68 0 -4 -12 -17 -27 -28 -29 -23
-52 -21 -91 10 -25 19 -52 16 -52 -7 0 -22 61 -54 102 -54 27 0 47 8 72 30 43
38 66 31 125 -37 99 -115 106 -250 18 -341 -58 -60 -157 -63 -213 -7 -32 32
-30 45 11 85 40 39 46 70 14 70 -26 0 -76 -49 -85 -84 -9 -36 14 -94 47 -118
36 -27 133 -35 180 -15 56 23 106 74 137 138 l28 58 37 -49 37 -49 -45 -31
c-58 -40 -60 -68 -5 -60 8 1 27 13 43 26 37 31 50 30 166 -7 170 -55 292 -49
429 20 53 27 152 119 152 141 0 42 310 35 480 -11 214 -58 346 -183 395 -374
28 -109 17 -196 -32 -262 -30 -41 -44 -42 -37 -5 6 30 -15 62 -40 62 -30 0
-66 -41 -66 -74 0 -81 109 -96 177 -24 41 45 53 86 53 187 0 161 -42 263 -155
377 -132 134 -275 183 -562 193 -114 4 -186 10 -193 17 -6 6 -10 24 -8 40 4
38 27 43 233 50 275 10 433 -18 620 -111 149 -73 139 -64 116 -116 -25 -53
-26 -71 -6 -113 22 -46 68 -69 150 -76 l69 -5 19 -49 c10 -27 15 -51 12 -54
-5 -5 -91 5 -207 24 -31 6 -38 4 -38 -10 0 -23 77 -56 159 -68 109 -17 114
-20 109 -79 -3 -27 -7 -51 -9 -54 -8 -7 -132 22 -180 43 -34 15 -50 17 -58 9
-29 -29 -17 -35 182 -91 56 -16 57 -17 57 -54 0 -21 -6 -46 -13 -55 -11 -16
-16 -17 -54 -3 -24 8 -59 26 -80 40 -45 31 -86 35 -81 9 2 -11 35 -35 79 -58
105 -55 109 -59 98 -97 -17 -62 -25 -61 -133 22 -71 54 -124 76 -113 46 4 -10
7 -22 7 -27 0 -4 43 -39 95 -75 52 -37 95 -70 95 -74 0 -15 -87 -126 -121
-154 -56 -48 -106 -66 -185 -66 -81 0 -91 6 -119 83 -21 55 -28 62 -45 42 -15
-18 -5 -81 20 -123 25 -41 82 -56 174 -48 133 12 199 60 321 234 1 1 45 -20
97 -47 154 -78 233 -96 423 -95 183 0 239 11 373 75 166 80 261 210 285 391
l13 93 124 3 c135 3 217 -11 300 -51 42 -20 45 -25 44 -59 -2 -75 -88 -164
-185 -192 -43 -13 -55 -13 -129 5 -83 20 -100 19 -100 -7 0 -28 88 -58 170
-58 144 -2 238 64 290 201 l17 46 43 -54 c24 -30 57 -83 74 -119 27 -57 31
-75 31 -152 0 -73 -3 -91 -21 -115 -20 -26 -26 -28 -82 -25 -65 3 -79 -5 -58
-33 19 -26 102 -31 146 -8 77 40 97 118 66 264 -20 92 -47 141 -125 223 -63
67 -69 77 -85 146 -20 89 -49 142 -111 199 -112 103 -318 147 -494 106 -74
-18 -88 -15 -147 30 -63 48 -134 61 -254 46 -69 -8 -100 -17 -114 -31 -18 -18
-18 -20 -3 -26 10 -3 50 -2 90 4 43 6 92 7 122 2 58 -9 165 -48 165 -59 0 -10
-67 -41 -89 -41 -10 0 -29 -9 -43 -19 -16 -13 -33 -18 -47 -14 -15 4 -27 0
-36 -14 -10 -14 -22 -19 -39 -16 -18 4 -27 -1 -36 -17 -9 -16 -18 -20 -34 -16
-16 4 -29 -1 -41 -14 -10 -11 -25 -20 -33 -20 -20 0 -158 -66 -167 -79 -3 -6
-19 -11 -34 -11 -15 0 -36 -9 -46 -20 -14 -15 -26 -19 -46 -15 -15 4 -49 -1
-74 -10 -77 -26 -100 -6 -93 80 l3 39 68 12 c91 17 146 45 197 100 107 116
114 257 16 346 -89 82 -308 91 -470 20 -27 -12 -54 -22 -61 -22 -6 0 -48 26
-93 58 -95 69 -169 104 -283 134 -73 19 -110 22 -279 22 -145 0 -216 -4 -279
-17 -120 -25 -133 -23 -185 22 -72 62 -163 74 -256 35 -41 -17 -67 -51 -52
-66 7 -7 29 -1 66 17 73 36 145 32 205 -10 23 -15 41 -31 41 -35 0 -3 -24 -12
-52 -19 -117 -26 -257 -78 -410 -152 -184 -88 -173 -88 -230 0 -22 35 -28 57
-28 99 0 46 4 58 29 83 32 32 73 38 129 18 17 -6 38 -9 46 -7 13 3 13 7 0 35
-18 36 -67 63 -113 63 -71 0 -141 -64 -141 -128 0 -55 -13 -55 -39 -1 -19 39
-43 68 -88 104 -55 43 -63 53 -63 83 0 41 -49 137 -93 182 -78 80 -194 105
-477 104 -233 0 -365 -16 -580 -69 -150 -36 -504 -96 -490 -82 3 3 47 19 98
36 52 17 114 45 138 62 24 16 60 37 79 45 39 16 60 54 51 90 -7 27 -36 38 -76
29 -35 -8 -50 -31 -50 -74 0 -24 -8 -36 -38 -56 -137 -91 -380 -128 -524 -80
-42 14 -41 14 47 9 101 -6 215 9 256 33 77 46 57 159 -31 183 -64 17 -147 -8
-171 -51 -16 -31 -5 -34 50 -10 64 27 124 28 151 1 26 -26 25 -32 -5 -68 -54
-64 -223 -74 -399 -23 -60 17 -111 29 -114 27 -26 -26 89 -102 212 -142 193
-61 362 -58 801 15 368 61 530 75 691 61 203 -18 310 -53 371 -124 30 -33 60
-102 50 -113 -3 -2 -41 11 -84 30 -55 25 -114 41 -203 56 -276 45 -526 46
-870 0 -85 -11 -227 -23 -315 -26 -136 -5 -179 -2 -290 17 -272 46 -395 113
-395 217 0 97 149 139 166 46 7 -36 18 -42 32 -17 25 45 -32 114 -94 114 -48
0 -96 -22 -123 -56 l-22 -28 -16 23 c-18 27 -87 60 -123 61 -14 0 -41 -8 -60
-18z m3448 -674 c4 -46 0 -48 -146 -82 -117 -27 -159 -43 -181 -70 -27 -32 20
-30 128 7 58 19 124 39 146 43 38 7 39 6 25 -11 -21 -26 -144 -81 -215 -95
-113 -24 -365 -9 -365 21 0 16 204 107 335 149 72 23 155 50 185 60 74 25 84
22 88 -22z m-6402 -27 c134 -34 416 -143 475 -184 21 -15 21 -16 -17 -26 -112
-30 -352 -19 -443 19 -67 29 -87 52 -34 39 70 -17 174 -39 184 -39 5 0 9 8 9
19 0 21 0 21 -160 57 -63 15 -121 31 -127 36 -14 11 -18 90 -6 101 4 4 14 5
22 3 9 -3 53 -14 97 -25z m7900 -49 c86 -44 143 -137 123 -204 -17 -61 -71
-99 -203 -144 -98 -34 -101 -33 -126 32 -11 31 -19 58 -18 59 2 1 19 10 38 20
54 26 109 83 103 106 -8 28 -21 24 -87 -26 -33 -25 -65 -45 -73 -45 -13 0
-133 144 -133 160 0 14 34 29 113 51 93 25 205 21 263 -9z m-9266 -72 c29 -6
70 -15 91 -20 l38 -11 -50 -77 c-28 -42 -54 -81 -59 -86 -6 -6 -31 5 -64 27
-56 37 -80 45 -90 28 -11 -17 4 -36 65 -80 58 -43 60 -46 54 -79 -9 -49 -23
-82 -34 -82 -33 0 -191 44 -224 63 -47 26 -77 80 -77 138 0 141 149 217 350
179z m8908 -75 c60 -77 58 -96 -6 -77 -54 16 -92 48 -92 77 0 32 21 76 34 72
6 -2 35 -34 64 -72z m-8704 -38 c17 -48 -56 -114 -116 -105 -18 3 -14 11 32
71 29 37 58 66 64 64 6 -2 15 -15 20 -30z m10203 -109 c57 -17 139 -69 171
-107 18 -22 59 -110 68 -144 l7 -29 -29 15 c-16 8 -67 27 -114 42 -74 24 -102
28 -218 29 l-133 1 -19 52 c-10 29 -32 74 -50 99 -17 26 -29 48 -27 50 2 2 37
8 78 13 93 11 186 4 266 -21z m-350 -94 c61 -115 62 -114 -59 -153 -57 -18
-173 -68 -259 -111 -234 -118 -255 -124 -434 -124 -94 0 -166 4 -193 12 l-44
13 7 42 c13 75 21 87 57 87 18 0 50 -5 71 -11 32 -9 43 -7 71 10 28 18 38 19
65 10 26 -9 35 -8 50 5 10 9 27 16 39 16 11 0 24 5 27 10 3 6 18 10 32 10 17
0 27 7 30 21 4 16 11 19 29 15 17 -5 29 0 41 14 10 11 29 20 44 20 18 0 28 6
32 20 4 15 14 20 37 20 23 0 33 5 37 20 4 15 11 18 33 13 22 -4 31 0 44 20 12
17 23 23 40 20 16 -3 27 3 40 22 17 26 91 67 111 62 6 -2 29 -39 52 -83z
m-11080 2 c5 -5 -52 -144 -76 -186 -5 -8 -17 -14 -27 -12 -11 2 -64 6 -119 9
-115 6 -193 -9 -307 -57 -38 -16 -72 -30 -75 -30 -8 0 9 64 27 101 24 46 86
102 150 134 87 44 152 55 293 51 71 -3 131 -7 134 -10z m189 -86 c42 -28 81
-47 89 -44 8 4 18 -1 21 -10 3 -9 16 -16 29 -16 12 0 30 -9 40 -20 10 -11 23
-20 30 -20 7 0 20 -9 30 -20 11 -12 31 -20 51 -20 24 0 34 -5 39 -21 6 -17 13
-20 35 -15 21 4 31 0 42 -16 13 -19 25 -22 99 -23 47 0 96 -7 111 -14 21 -11
36 -11 72 -2 79 20 103 15 115 -20 13 -37 15 -89 4 -89 -5 0 -48 -7 -98 -15
-49 -9 -129 -16 -177 -16 -100 0 -161 18 -383 116 -71 32 -182 74 -245 95 -88
29 -116 42 -118 57 -1 10 19 53 44 96 54 93 55 93 170 17z m10950 -162 c-13
-126 -94 -248 -205 -307 -120 -64 -351 -98 -486 -72 -33 7 -96 16 -140 21 -83
9 -225 50 -259 75 -18 14 -18 15 2 62 24 55 19 54 162 33 100 -14 212 -7 354
21 127 26 225 64 403 155 78 41 150 74 159 74 15 0 16 -8 10 -62z m-10844
-184 c212 -90 462 -112 658 -59 30 8 58 15 62 15 10 0 48 -75 48 -94 0 -30
-134 -92 -260 -120 -108 -24 -332 -30 -426 -12 -191 36 -296 102 -359 226 -22
44 -54 154 -55 187 0 7 60 -16 138 -53 75 -36 163 -76 194 -90z"/>
</g>
</svg>
